<?xml version="1.0"?>
<svg width="40" height="40" xmlns="http://www.w3.org/2000/svg" xmlns:svg="http://www.w3.org/2000/svg" enable-background="new 0 0 40 40" version="1.1" xml:space="preserve">
 <g class="layer">
  <title>Layer 1</title>
  <g id="svg_1">
   <g id="svg_2">
    <g id="svg_3">
     <g id="svg_4">
      <path d="m24.55,39.25l-17.85,0c-3.12,0 -5.58,-2.49 -5.58,-5.66l0,-27.18c0,-3.17 2.45,-5.66 5.58,-5.66l8.03,0c0.89,0 1.78,0.45 2.45,0.91l12.05,12.23c0.67,0.68 0.89,1.59 0.89,2.49l0,17.21c0,3.17 -2.45,5.66 -5.58,5.66zm-17.85,-36.24c-1.78,0 -3.35,1.59 -3.35,3.4l0,27.18c0,1.81 1.56,3.4 3.35,3.4l17.85,0c1.78,0 3.35,-1.59 3.35,-3.4l0,-17.21c0,-0.23 -0.22,-0.68 -0.22,-0.91l-12.05,-12.23c-0.22,-0.23 -0.45,-0.23 -0.89,-0.23l-8.03,0z" fill="#71717a" id="svg_5"/>
     </g>
     <g id="svg_6">
      <path d="m16.74,1.88l0,9.06c0,1.81 1.56,3.4 3.35,3.4l8.92,0l0,2.26l-8.92,0c-3.12,0 -5.58,-2.49 -5.58,-5.66l0,-9.06l2.23,0z" fill="#71717a" id="svg_7"/>
     </g>
    </g>
    <g id="svg_8">
     <path d="m22.32,33.59l-13.38,0c-0.67,0 -1.12,-0.45 -1.12,-1.13s0.45,-1.13 1.12,-1.13l13.38,0c0.67,0 1.12,0.45 1.12,1.13s-0.45,1.13 -1.12,1.13z" fill="#71717a" id="svg_9"/>
    </g>
    <g id="svg_10">
     <path d="m22.32,27.93l-13.38,0c-0.67,0 -1.12,-0.45 -1.12,-1.13s0.45,-1.13 1.12,-1.13l13.38,0c0.67,0 1.12,0.45 1.12,1.13s-0.45,1.13 -1.12,1.13z" fill="#71717a" id="svg_11"/>
    </g>
    <g id="svg_12">
     <path d="m22.32,22.26l-13.38,0c-0.67,0 -1.12,-0.45 -1.12,-1.13s0.45,-1.13 1.12,-1.13l13.38,0c0.67,0 1.12,0.45 1.12,1.13s-0.45,1.13 -1.12,1.13z" fill="#71717a" id="svg_13"/>
    </g>
   </g>
  </g>
 </g>
</svg>